<svg version="1.1" id="Layer_1" xmlns="http://www.w3.org/2000/svg" xmlns:xlink="http://www.w3.org/1999/xlink" x="0px" y="0px"
	 width="100%" viewBox="0 0 205 150" enable-background="new 0 0 205 150" xml:space="preserve">
<path fill="#000000" opacity="1.000000" stroke="none" 
	d="
M141.000000,151.000000 
	C94.000000,151.000000 47.500004,151.000000 1.000006,151.000000 
	C1.000004,101.000008 1.000004,51.000011 1.000002,1.000013 
	C69.333321,1.000009 137.666641,1.000009 205.999969,1.000004 
	C205.999985,50.999985 205.999985,100.999969 206.000000,150.999969 
	C184.500000,151.000000 163.000000,151.000000 141.000000,151.000000 
M25.694693,90.155800 
	C23.008589,90.485847 20.322483,90.815903 17.115652,91.772377 
	C17.079865,98.053833 16.603121,104.370712 17.104387,110.609016 
	C18.016243,121.957161 18.293596,123.665619 29.425537,122.996353 
	C29.755049,122.976540 30.090168,122.962479 30.416956,122.998131 
	C34.607784,123.455299 35.798630,121.059998 35.860794,117.633064 
	C32.736603,117.054039 29.788748,116.507690 26.988638,115.038300 
	C26.994329,109.947128 27.114302,104.852531 26.962025,99.766083 
	C26.873388,96.805336 26.348404,93.857635 26.022291,90.982231 
	C26.022291,90.982231 26.058861,90.913094 25.694693,90.155800 
M92.014877,64.063667 
	C91.964264,63.261089 91.913658,62.458511 91.975403,61.382126 
	C91.975403,61.382126 91.906143,61.094379 92.858276,61.009380 
	C103.440651,61.006210 114.023376,61.043816 124.604965,60.950974 
	C126.010490,60.938644 127.410202,60.263515 128.973328,59.040844 
	C129.060623,52.053516 129.060440,52.083645 121.913528,52.041203 
	C111.931541,51.981922 101.949867,51.872231 91.995277,51.103302 
	C91.957901,50.418957 91.920525,49.734612 92.034470,48.117268 
	C91.985138,37.399960 91.935799,26.682653 91.883278,15.478847 
	C91.701210,15.127920 91.424500,15.020256 90.174347,15.031466 
	C88.107300,15.067402 86.040245,15.103337 83.195122,15.497858 
	C83.177315,27.520775 83.159500,39.543690 82.492638,51.970978 
	C80.972778,51.886616 79.452927,51.802254 77.979858,50.830162 
	C77.983803,40.415852 78.023567,30.001297 77.951324,19.587517 
	C77.941025,18.103123 77.387741,16.622496 76.185112,15.018611 
	C73.763344,15.056806 71.341576,15.095000 68.130836,15.476907 
	C68.087883,26.941475 67.966377,38.407028 68.110535,49.869244 
	C68.126854,51.167595 69.638618,52.447140 70.880562,54.230640 
	C74.261627,57.643085 76.983162,62.210827 82.986504,61.886280 
	C83.368164,63.364330 83.749817,64.842377 84.451988,66.886978 
	C86.717026,69.158432 88.982063,71.429886 91.180153,74.624611 
	C103.479385,74.721352 115.778595,74.823860 128.078018,74.871971 
	C128.315201,74.872902 128.554901,74.232918 128.959244,73.060585 
	C128.654449,70.701653 128.349640,68.342720 127.653473,65.193344 
	C115.791168,65.083412 103.928856,64.973488 92.014877,64.063667 
M136.094040,118.862144 
	C136.171478,119.748466 136.248932,120.634796 136.142212,122.387741 
	C138.933487,123.105232 141.724762,123.822723 144.996155,124.663620 
	C144.996155,113.315498 145.014130,103.089981 144.947388,92.865005 
	C144.943741,92.305626 144.233902,91.750854 143.041702,91.045586 
	C141.147812,91.143211 139.253906,91.240837 136.444855,91.131859 
	C136.382629,100.157234 136.320389,109.182602 136.094040,118.862144 
M49.459179,91.122223 
	C49.301830,101.167145 49.075806,111.212288 49.109127,121.256577 
	C49.111996,122.119965 50.834671,122.977661 52.623692,124.044678 
	C57.349339,124.604095 59.429199,122.974907 59.119244,117.774071 
	C58.676456,110.344521 58.899502,102.866814 59.054092,95.414154 
	C59.119007,92.284912 58.189873,90.661003 54.844448,91.011635 
	C53.368526,91.166321 51.878761,91.188850 49.459179,91.122223 
M110.968254,91.043037 
	C108.738739,91.043037 106.509224,91.043037 104.054276,91.043037 
	C104.054276,100.061821 103.602295,108.372726 104.344879,116.575493 
	C104.552757,118.871704 108.044159,121.206032 110.490685,122.826248 
	C111.761284,123.667702 114.066788,122.787796 115.856148,123.036057 
	C120.227257,123.642517 122.729912,122.161484 122.736061,117.553642 
	C119.436523,117.035889 116.148247,116.519905 112.981133,115.069649 
	C112.987671,108.320663 113.051338,101.570793 112.948013,94.823494 
	C112.929436,93.610641 112.222404,92.408340 110.968254,91.043037 
M162.232101,122.960487 
	C166.904587,123.803154 168.602417,121.815285 168.063507,117.203682 
	C167.759460,114.601822 168.008667,111.935303 168.008667,109.223251 
	C174.622314,110.698730 176.194962,109.777824 177.544525,103.308525 
	C174.420441,103.170135 171.396713,103.036194 168.266190,102.897514 
	C168.266190,100.817383 168.266190,99.084465 168.266190,96.746094 
	C173.343246,97.700081 177.786606,97.431702 178.564636,91.025017 
	C174.954239,91.025017 171.312637,90.715340 167.757645,91.136566 
	C165.480759,91.406342 163.331665,92.754700 160.332428,94.119370 
	C160.203857,103.494789 160.065933,112.870163 160.008743,122.246017 
	C160.007507,122.449120 160.931534,122.657860 162.232101,122.960487 
M72.310684,96.209846 
	C72.209846,104.608284 72.089211,113.006676 72.065697,121.405327 
	C72.064499,121.832466 72.899506,122.261940 73.838249,123.310867 
	C75.991486,123.308449 79.904724,123.730148 80.023453,123.237457 
	C81.111488,118.722458 81.540886,114.048737 82.154510,109.479660 
	C87.773041,110.777290 88.599236,110.359283 91.186806,103.638443 
	C87.674629,103.314339 84.416168,103.013649 80.970535,102.695686 
	C81.063087,100.623230 81.140816,98.882805 81.230598,96.872543 
	C86.258537,97.256905 91.031708,97.697296 91.787788,91.298737 
	C87.392845,90.905777 83.197197,89.913780 79.179047,90.397171 
	C76.672340,90.698738 72.558411,91.273376 72.310684,96.209846 
z"/>
<path fill="#11AAE4" opacity="1.000000" stroke="none" 
	d="
M91.906143,61.094376 
	C91.906143,61.094379 91.975403,61.382126 91.552216,61.376846 
	C88.398804,61.285755 85.668594,61.199936 82.938377,61.114120 
	C76.983162,62.210827 74.261627,57.643085 70.587692,53.759975 
	C70.230873,52.983036 70.166481,52.676857 70.536194,52.314537 
	C72.974770,51.932343 74.978790,51.606380 77.200058,51.433914 
	C77.589226,51.630905 77.761147,51.674400 77.933067,51.717892 
	C79.452927,51.802254 80.972778,51.886616 83.017929,51.717361 
	C83.543213,51.463745 83.907654,51.271290 84.263672,51.444691 
	C86.752342,51.523087 88.884987,51.428082 91.238945,51.480175 
	C91.629524,51.679554 91.798790,51.731831 91.968056,51.784107 
	C101.949867,51.872231 111.931541,51.981922 121.913528,52.041203 
	C129.060440,52.083645 129.060623,52.053516 128.437317,59.488503 
	C117.612091,59.954536 107.322304,59.923111 97.034203,60.040359 
	C95.321068,60.059879 93.615311,60.726681 91.906143,61.094376 
z"/>
<path fill="#1BAEE3" opacity="1.000000" stroke="none" 
	d="
M73.174866,95.903717 
	C72.558411,91.273376 76.672340,90.698738 79.179047,90.397171 
	C83.197197,89.913780 87.392845,90.905777 91.787788,91.298737 
	C91.031708,97.697296 86.258537,97.256905 81.230598,96.872543 
	C81.140816,98.882805 81.063087,100.623230 80.970535,102.695686 
	C84.416168,103.013649 87.674629,103.314339 91.186806,103.638443 
	C88.599236,110.359283 87.773041,110.777290 82.154510,109.479660 
	C81.540886,114.048737 81.111488,118.722458 80.023453,123.237457 
	C79.904724,123.730148 75.991486,123.308449 73.508148,122.560944 
	C73.176987,113.175255 73.175926,104.539490 73.174866,95.903717 
z"/>
<path fill="#10ABE3" opacity="1.000000" stroke="none" 
	d="
M128.044830,65.983788 
	C128.349640,68.342720 128.654449,70.701653 128.422440,73.503967 
	C115.672791,73.865349 103.459946,73.783348 91.247093,73.701347 
	C88.982063,71.429886 86.717026,69.158432 84.672852,66.512711 
	C86.914322,65.828262 88.934929,65.518082 91.271683,65.487335 
	C103.740150,65.839111 115.892494,65.911453 128.044830,65.983788 
z"/>
<path fill="#11ACE5" opacity="1.000000" stroke="none" 
	d="
M161.125275,93.619537 
	C163.331665,92.754700 165.480759,91.406342 167.757645,91.136566 
	C171.312637,90.715340 174.954239,91.025017 178.564636,91.025017 
	C177.786606,97.431702 173.343246,97.700081 168.266190,96.746094 
	C168.266190,99.084465 168.266190,100.817383 168.266190,102.897514 
	C171.396713,103.036194 174.420441,103.170135 177.544525,103.308525 
	C176.194962,109.777824 174.622314,110.698730 168.008667,109.223251 
	C168.008667,111.935303 167.759460,114.601822 168.063507,117.203682 
	C168.602417,121.815285 166.904587,123.803154 161.773956,122.459137 
	C161.252304,112.511711 161.188797,103.065620 161.125275,93.619537 
z"/>
<path fill="#1BADE3" opacity="1.000000" stroke="none" 
	d="
M26.840893,115.961349 
	C29.788748,116.507690 32.736603,117.054039 35.860794,117.633064 
	C35.798630,121.059998 34.607784,123.455299 30.416956,122.998131 
	C30.090168,122.962479 29.755049,122.976540 29.425537,122.996353 
	C18.293596,123.665619 18.016243,121.957161 17.104387,110.609016 
	C16.603121,104.370712 17.079865,98.053833 17.850647,91.530319 
	C21.076714,91.163200 23.567787,91.038147 26.058861,90.913094 
	C26.058861,90.913094 26.022291,90.982231 25.898823,91.404358 
	C25.755016,99.180183 25.734678,106.533875 25.612293,114.025574 
	C25.595505,114.472198 25.680767,114.780815 25.872871,115.310387 
	C26.209337,115.789696 26.496397,115.933037 26.840893,115.961349 
z"/>
<path fill="#15ABE2" opacity="1.000000" stroke="none" 
	d="
M112.859978,116.003922 
	C116.148247,116.519905 119.436523,117.035889 122.736061,117.553642 
	C122.729912,122.161484 120.227257,123.642517 115.856148,123.036057 
	C114.066788,122.787796 111.761284,123.667702 110.490685,122.826248 
	C108.044159,121.206032 104.552757,118.871704 104.344879,116.575493 
	C103.602295,108.372726 104.054276,100.061821 104.054276,91.043037 
	C106.509224,91.043037 108.738739,91.043037 111.454483,91.574570 
	C112.247139,100.072044 112.553558,108.037979 112.859978,116.003922 
z"/>
<path fill="#717579" opacity="1.000000" stroke="none" 
	d="
M76.982803,51.280422 
	C74.978790,51.606380 72.974770,51.932343 70.220978,51.978592 
	C69.287407,39.510319 69.103607,27.321756 68.919807,15.133196 
	C71.341576,15.095000 73.763344,15.056806 76.613136,15.538591 
	C77.021706,27.799189 77.002258,39.539806 76.982803,51.280422 
z"/>
<path fill="#707479" opacity="1.000000" stroke="none" 
	d="
M91.017639,51.333076 
	C88.884987,51.428082 86.752342,51.523087 84.288399,50.953121 
	C83.962471,38.571857 83.967834,26.855564 83.973198,15.139272 
	C86.040245,15.103337 88.107300,15.067402 90.731590,15.249189 
	C91.463173,15.662882 91.662376,15.829026 91.886459,15.965346 
	C91.935799,26.682653 91.985138,37.399960 91.793320,48.777828 
	C91.373993,50.069950 91.195816,50.701515 91.017639,51.333076 
z"/>
<path fill="#21B0E4" opacity="1.000000" stroke="none" 
	d="
M50.395279,91.271385 
	C51.878761,91.188850 53.368526,91.166321 54.844448,91.011635 
	C58.189873,90.661003 59.119007,92.284912 59.054092,95.414154 
	C58.899502,102.866814 58.676456,110.344521 59.119244,117.774071 
	C59.429199,122.974907 57.349339,124.604095 52.093933,123.593071 
	C51.112617,121.777740 50.279362,120.416321 50.271099,119.049911 
	C50.215099,109.790993 50.333351,100.531021 50.395279,91.271385 
z"/>
<path fill="#13ABE4" opacity="1.000000" stroke="none" 
	d="
M137.360016,91.338455 
	C139.253906,91.240837 141.147812,91.143211 143.498993,91.572906 
	C143.984833,99.673393 144.025833,107.246529 144.038467,114.819717 
	C144.051453,122.601173 144.039322,122.601196 136.326370,121.521118 
	C136.248932,120.634796 136.171478,119.748466 136.485474,118.225037 
	C137.037933,108.838104 137.198975,100.088280 137.360016,91.338455 
z"/>
<path fill="#6BE1FC" opacity="1.000000" stroke="none" 
	d="
M136.234283,121.954430 
	C144.039322,122.601196 144.051453,122.601173 144.038467,114.819717 
	C144.025833,107.246529 143.984833,99.673393 143.904526,91.647087 
	C144.233902,91.750854 144.943741,92.305626 144.947388,92.865005 
	C145.014130,103.089981 144.996155,113.315498 144.996155,124.663620 
	C141.724762,123.822723 138.933487,123.105232 136.234283,121.954430 
z"/>
<path fill="#C4C5C6" opacity="1.000000" stroke="none" 
	d="
M68.525322,15.305052 
	C69.103607,27.321756 69.287407,39.510319 69.786415,52.034828 
	C70.166481,52.676857 70.230873,52.983036 70.375877,53.512360 
	C69.638618,52.447140 68.126854,51.167595 68.110535,49.869244 
	C67.966377,38.407028 68.087883,26.941475 68.525322,15.305052 
z"/>
<path fill="#AAFFFF" opacity="1.000000" stroke="none" 
	d="
M91.213623,74.162979 
	C103.459946,73.783348 115.672791,73.865349 128.339539,73.919655 
	C128.554901,74.232918 128.315201,74.872902 128.078018,74.871971 
	C115.778595,74.823860 103.479385,74.721352 91.213623,74.162979 
z"/>
<path fill="#9CEFFF" opacity="1.000000" stroke="none" 
	d="
M127.849152,65.588562 
	C115.892494,65.911453 103.740150,65.839111 91.547173,65.393326 
	C91.693207,64.967773 91.879883,64.915665 92.066551,64.863556 
	C103.928856,64.973488 115.791168,65.083412 127.849152,65.588562 
z"/>
<path fill="#65767F" opacity="1.000000" stroke="none" 
	d="
M92.040710,64.463608 
	C91.879883,64.915665 91.693207,64.967773 91.231033,65.113892 
	C88.934929,65.518082 86.914322,65.828262 84.512589,66.229431 
	C83.749817,64.842377 83.368164,63.364330 82.962440,61.500198 
	C85.668594,61.199936 88.398804,61.285755 91.496033,61.513752 
	C91.913658,62.458511 91.964264,63.261089 92.040710,64.463608 
z"/>
<path fill="#7AE0FF" opacity="1.000000" stroke="none" 
	d="
M92.382210,61.051880 
	C93.615311,60.726681 95.321068,60.059879 97.034203,60.040359 
	C107.322304,59.923111 117.612091,59.954536 128.356964,59.915749 
	C127.410202,60.263515 126.010490,60.938644 124.604965,60.950974 
	C114.023376,61.043816 103.440651,61.006210 92.382210,61.051880 
z"/>
<path fill="#C4C5C6" opacity="1.000000" stroke="none" 
	d="
M77.200058,51.433914 
	C77.002258,39.539806 77.021706,27.799189 77.063461,15.599348 
	C77.387741,16.622496 77.941025,18.103123 77.951324,19.587517 
	C78.023567,30.001297 77.983803,40.415852 77.956467,51.274025 
	C77.761147,51.674400 77.589226,51.630905 77.200058,51.433914 
z"/>
<path fill="#D0F6FD" opacity="1.000000" stroke="none" 
	d="
M49.927231,91.196808 
	C50.333351,100.531021 50.215099,109.790993 50.271099,119.049911 
	C50.279362,120.416321 51.112617,121.777740 51.661312,123.489731 
	C50.834671,122.977661 49.111996,122.119965 49.109127,121.256577 
	C49.075806,111.212288 49.301830,101.167145 49.927231,91.196808 
z"/>
<path fill="#84898D" opacity="1.000000" stroke="none" 
	d="
M83.584160,15.318565 
	C83.967834,26.855564 83.962471,38.571857 83.932381,50.779720 
	C83.907654,51.271290 83.543213,51.463745 83.342453,51.515175 
	C83.159500,39.543690 83.177315,27.520775 83.584160,15.318565 
z"/>
<path fill="#6C9DAC" opacity="1.000000" stroke="none" 
	d="
M160.728851,93.869453 
	C161.188797,103.065620 161.252304,112.511711 161.369873,122.410889 
	C160.931534,122.657860 160.007507,122.449120 160.008743,122.246017 
	C160.065933,112.870163 160.203857,103.494789 160.728851,93.869453 
z"/>
<path fill="#E5FFFF" opacity="1.000000" stroke="none" 
	d="
M72.742775,96.056778 
	C73.175926,104.539490 73.176987,113.175255 73.261612,122.250679 
	C72.899506,122.261940 72.064499,121.832466 72.065697,121.405327 
	C72.089211,113.006676 72.209846,104.608284 72.742775,96.056778 
z"/>
<path fill="#FFFFFF" opacity="1.000000" stroke="none" 
	d="
M136.902435,91.235153 
	C137.198975,100.088280 137.037933,108.838104 136.567535,117.897949 
	C136.320389,109.182602 136.382629,100.157234 136.902435,91.235153 
z"/>
<path fill="#D0F6FD" opacity="1.000000" stroke="none" 
	d="
M26.914764,115.499825 
	C26.496397,115.933037 26.209337,115.789696 25.915169,115.007607 
	C25.805199,114.285110 25.759769,114.086334 25.714342,113.887566 
	C25.734678,106.533875 25.755016,99.180183 25.897552,91.365280 
	C26.348404,93.857635 26.873388,96.805336 26.962025,99.766083 
	C27.114302,104.852531 26.994329,109.947128 26.914764,115.499825 
z"/>
<path fill="#60E2FF" opacity="1.000000" stroke="none" 
	d="
M112.920555,115.536789 
	C112.553558,108.037979 112.247139,100.072044 111.886978,91.653633 
	C112.222404,92.408340 112.929436,93.610641 112.948013,94.823494 
	C113.051338,101.570793 112.987671,108.320663 112.920555,115.536789 
z"/>
<path fill="#71C7E6" opacity="1.000000" stroke="none" 
	d="
M25.876778,90.534447 
	C23.567787,91.038147 21.076714,91.163200 18.111010,91.217102 
	C20.322483,90.815903 23.008589,90.485847 25.876778,90.534447 
z"/>
<path fill="#84898D" opacity="1.000000" stroke="none" 
	d="
M91.238945,51.480179 
	C91.195816,50.701515 91.373993,50.069950 91.717659,49.244328 
	C91.920525,49.734612 91.957901,50.418957 91.981667,51.443703 
	C91.798790,51.731831 91.629524,51.679554 91.238945,51.480179 
z"/>
<path fill="#84898D" opacity="1.000000" stroke="none" 
	d="
M91.884872,15.722096 
	C91.662376,15.829026 91.463173,15.662882 91.170982,15.311384 
	C91.424500,15.020256 91.701210,15.127920 91.884872,15.722096 
z"/>
<path fill="#71C7E6" opacity="1.000000" stroke="none" 
	d="
M25.612293,114.025574 
	C25.759769,114.086334 25.805199,114.285110 25.808327,114.786659 
	C25.680767,114.780815 25.595505,114.472198 25.612293,114.025574 
z"/>
</svg>