<svg version="1.1" id="Layer_1" xmlns="http://www.w3.org/2000/svg" xmlns:xlink="http://www.w3.org/1999/xlink" x="0px" y="0px"
	 width="100%" viewBox="0 0 205 150" enable-background="new 0 0 205 150" xml:space="preserve">
<path fill="#000000" opacity="1.000000" stroke="none" 
	d="
M141.000000,151.000000 
	C94.000000,151.000000 47.500004,151.000000 1.000006,151.000000 
	C1.000004,101.000008 1.000004,51.000011 1.000002,1.000013 
	C69.333321,1.000009 137.666641,1.000009 205.999969,1.000004 
	C205.999985,50.999985 205.999985,100.999969 206.000000,150.999969 
	C184.500000,151.000000 163.000000,151.000000 141.000000,151.000000 
M25.694635,90.155785 
	C23.008617,90.485809 20.322601,90.815842 17.115702,91.772194 
	C17.079899,98.053528 16.603443,104.370239 17.104319,110.608482 
	C18.015659,121.958847 18.295662,123.664276 29.425514,122.996353 
	C29.755026,122.976578 30.090134,122.962471 30.416916,122.998116 
	C34.607826,123.455307 35.798813,121.060196 35.860275,117.632950 
	C32.736481,117.053993 29.788689,116.507660 26.988621,115.038277 
	C26.994312,109.947083 27.114292,104.852478 26.962008,99.766006 
	C26.873365,96.805260 26.348345,93.857574 26.022125,90.982185 
	C26.022125,90.982185 26.058777,90.913086 25.694635,90.155785 
M92.014870,64.063614 
	C91.964294,63.260971 91.913712,62.458324 91.975594,61.381813 
	C91.975594,61.381813 91.906387,61.093952 92.858482,61.009003 
	C103.440887,61.005974 114.023659,61.043716 124.605278,60.951023 
	C126.010780,60.938713 127.410492,60.263645 128.973099,59.040909 
	C129.060974,52.053497 129.060791,52.083656 121.913635,52.041180 
	C111.931679,51.981853 101.950027,51.872070 91.995316,51.103115 
	C91.957924,50.418831 91.920532,49.734547 92.034462,48.117264 
	C91.985130,37.399960 91.935791,26.682653 91.883278,15.478848 
	C91.701210,15.127920 91.424500,15.020259 90.174347,15.031477 
	C88.107292,15.067410 86.040245,15.103344 83.195129,15.497866 
	C83.127258,27.607143 83.059387,39.716423 82.161804,52.013706 
	C80.757072,51.923531 79.352348,51.833355 77.986038,50.850895 
	C77.990509,40.261166 78.027008,29.671230 77.958763,19.081968 
	C77.950272,17.764740 77.386261,16.451094 76.179352,15.017970 
	C73.759399,15.056498 71.339439,15.095025 68.130882,15.477771 
	C68.087982,26.943336 67.966492,38.409897 68.110970,49.873100 
	C68.127312,51.169445 69.642464,52.446907 70.882607,54.231110 
	C74.262436,57.644688 76.984390,62.210526 82.986618,61.886383 
	C83.368538,63.363407 83.750465,64.840431 84.451057,66.885574 
	C86.712105,69.172508 88.973160,71.459450 91.220772,74.664314 
	C103.345726,74.771111 115.470634,74.888435 127.595825,74.938042 
	C127.993088,74.939674 128.393158,74.252029 128.959167,73.055389 
	C128.654404,70.698212 128.349640,68.341026 127.653526,65.193390 
	C115.791199,65.083450 103.928879,64.973503 92.014870,64.063614 
M136.444839,91.131874 
	C136.382614,100.157242 136.320389,109.182602 136.094040,118.862419 
	C136.171341,119.749168 136.248642,120.635910 136.141434,122.389297 
	C138.933136,123.106049 141.724854,123.822807 144.996109,124.662682 
	C144.996109,113.315285 145.014099,103.089752 144.947342,92.864769 
	C144.943710,92.305496 144.233704,91.750832 143.041473,91.045586 
	C141.147644,91.143204 139.253830,91.240822 136.444839,91.131874 
M52.623409,124.044975 
	C57.348801,124.604004 59.429268,122.975372 59.119244,117.774178 
	C58.676395,110.344521 58.899353,102.866684 59.054249,95.413925 
	C59.119301,92.283989 58.189419,90.661224 54.844437,91.011658 
	C53.368484,91.166283 51.878700,91.188858 49.459095,91.122284 
	C49.301781,101.167091 49.075783,111.212135 49.109131,121.256310 
	C49.112000,122.119835 50.834492,122.977646 52.623409,124.044975 
M112.981133,115.069771 
	C112.987671,108.320717 113.051338,101.570793 112.948013,94.823425 
	C112.929443,93.610596 112.222336,92.408318 110.968170,91.043022 
	C108.738693,91.043022 106.509216,91.043022 104.054268,91.043022 
	C104.054268,100.061859 103.602295,108.372742 104.344879,116.575493 
	C104.552750,118.871719 108.044121,121.206070 110.490654,122.826302 
	C111.761223,123.667763 114.066711,122.787910 115.856087,123.036041 
	C120.226837,123.642151 122.730156,122.161911 122.736092,117.553566 
	C119.436554,117.035896 116.148262,116.519989 112.981133,115.069771 
M162.232147,122.960541 
	C166.905426,123.804359 168.601440,121.814682 168.063416,117.204208 
	C167.759766,114.602150 168.008667,111.935616 168.008667,109.223701 
	C174.618423,110.697174 176.195190,109.774124 177.545212,103.310448 
	C174.421432,103.170914 171.397781,103.035843 168.265503,102.895927 
	C168.265503,100.818542 168.265503,99.085670 168.265503,97.055092 
	C172.968582,97.095276 178.051239,97.865288 178.532776,91.025002 
	C174.954147,91.025002 171.312759,90.715408 167.757965,91.136528 
	C165.481155,91.406250 163.332092,92.754250 160.333359,94.119522 
	C160.204468,103.494911 160.066238,112.870247 160.008698,122.246078 
	C160.007462,122.449142 160.931564,122.657883 162.232147,122.960541 
M73.838264,123.310867 
	C75.991524,123.308525 79.904854,123.730263 80.023544,123.237694 
	C81.111465,118.722557 81.540855,114.048752 82.154434,109.479485 
	C87.774132,110.776680 88.599632,110.358994 91.186058,103.639748 
	C87.674461,103.314873 84.415848,103.013405 80.970413,102.694656 
	C81.063019,100.622368 81.140793,98.881920 81.225105,96.995110 
	C86.120987,97.030807 91.137344,97.868660 91.713890,91.292633 
	C87.392006,90.905647 83.196152,89.912514 79.178070,90.396210 
	C76.672531,90.697815 72.557861,91.273766 72.310715,96.209824 
	C72.209869,104.608284 72.089218,113.006683 72.065697,121.405357 
	C72.064499,121.832481 72.899521,122.261948 73.838264,123.310867 
z"/>
<path fill="#11AAE4" opacity="1.000000" stroke="none" 
	d="
M77.947617,51.743179 
	C79.352348,51.833355 80.757072,51.923531 82.846207,51.846386 
	C83.690407,51.582436 83.850212,51.485809 84.433426,51.528755 
	C86.910355,51.556656 88.963875,51.444977 91.238853,51.480225 
	C91.629623,51.679394 91.798935,51.731632 91.968246,51.783875 
	C101.950027,51.872070 111.931679,51.981853 121.913635,52.041180 
	C129.060791,52.083656 129.060974,52.053497 128.437317,59.488396 
	C117.612617,59.954300 107.323135,59.922909 97.035339,60.040180 
	C95.321907,60.059711 93.615852,60.726345 91.906387,61.093956 
	C91.906387,61.093952 91.975594,61.381813 91.552399,61.376381 
	C88.399101,61.285461 85.669014,61.199982 82.938919,61.114502 
	C76.984390,62.210526 74.262436,57.644688 70.590996,53.760971 
	C70.235107,52.986919 70.171700,52.682827 70.541786,52.321018 
	C72.972374,51.944813 74.970329,51.626141 77.192947,51.461750 
	C77.594276,51.658417 77.770950,51.700798 77.947617,51.743179 
z"/>
<path fill="#1BAEE3" opacity="1.000000" stroke="none" 
	d="
M73.174904,95.903694 
	C72.557861,91.273766 76.672531,90.697815 79.178070,90.396210 
	C83.196152,89.912514 87.392006,90.905647 91.713890,91.292633 
	C91.137344,97.868660 86.120987,97.030807 81.225105,96.995110 
	C81.140793,98.881920 81.063019,100.622368 80.970413,102.694656 
	C84.415848,103.013405 87.674461,103.314873 91.186058,103.639748 
	C88.599632,110.358994 87.774132,110.776680 82.154434,109.479485 
	C81.540855,114.048752 81.111465,118.722557 80.023544,123.237694 
	C79.904854,123.730263 75.991524,123.308525 73.508171,122.560944 
	C73.177017,113.175240 73.175964,104.539467 73.174904,95.903694 
z"/>
<path fill="#10ABE3" opacity="1.000000" stroke="none" 
	d="
M91.234207,73.746384 
	C88.973160,71.459450 86.712105,69.172508 84.672821,66.511154 
	C86.914871,65.827126 88.935173,65.517532 91.271606,65.487389 
	C103.740120,65.839180 115.892494,65.911514 128.044876,65.983849 
	C128.349640,68.341026 128.654404,70.698212 128.421844,73.499207 
	C115.667740,73.877480 103.450974,73.811935 91.234207,73.746384 
z"/>
<path fill="#11ACE5" opacity="1.000000" stroke="none" 
	d="
M161.125763,93.618874 
	C163.332092,92.754250 165.481155,91.406250 167.757965,91.136528 
	C171.312759,90.715408 174.954147,91.025002 178.532776,91.025002 
	C178.051239,97.865288 172.968582,97.095276 168.265503,97.055092 
	C168.265503,99.085670 168.265503,100.818542 168.265503,102.895927 
	C171.397781,103.035843 174.421432,103.170914 177.545212,103.310448 
	C176.195190,109.774124 174.618423,110.697174 168.008667,109.223701 
	C168.008667,111.935616 167.759766,114.602150 168.063416,117.204208 
	C168.601440,121.814682 166.905426,123.804359 161.774002,122.459167 
	C161.252487,112.511490 161.189133,103.065186 161.125763,93.618874 
z"/>
<path fill="#1BADE3" opacity="1.000000" stroke="none" 
	d="
M26.840895,115.961327 
	C29.788689,116.507660 32.736481,117.053993 35.860275,117.632950 
	C35.798813,121.060196 34.607826,123.455307 30.416916,122.998116 
	C30.090134,122.962471 29.755026,122.976578 29.425514,122.996353 
	C18.295662,123.664276 18.015659,121.958847 17.104319,110.608482 
	C16.603443,104.370239 17.079899,98.053528 17.850788,91.529770 
	C21.076841,91.162590 23.567808,91.037842 26.058777,90.913086 
	C26.058777,90.913086 26.022125,90.982185 25.899044,91.404388 
	C25.755419,99.180229 25.734879,106.533859 25.612247,114.025528 
	C25.595455,114.472252 25.680752,114.780945 25.872910,115.310539 
	C26.209394,115.789757 26.496435,115.933052 26.840895,115.961327 
z"/>
<path fill="#15ABE2" opacity="1.000000" stroke="none" 
	d="
M112.859978,116.004074 
	C116.148262,116.519989 119.436554,117.035896 122.736092,117.553566 
	C122.730156,122.161911 120.226837,123.642151 115.856087,123.036041 
	C114.066711,122.787910 111.761223,123.667763 110.490654,122.826302 
	C108.044121,121.206070 104.552750,118.871719 104.344879,116.575493 
	C103.602295,108.372742 104.054268,100.061859 104.054268,91.043022 
	C106.509216,91.043022 108.738693,91.043022 111.454407,91.574570 
	C112.247093,100.072098 112.553535,108.038086 112.859978,116.004074 
z"/>
<path fill="#717579" opacity="1.000000" stroke="none" 
	d="
M76.968292,51.307468 
	C74.970329,51.626141 72.972374,51.944813 70.225967,51.984283 
	C69.291512,39.514572 69.105499,27.324062 68.919487,15.133554 
	C71.339439,15.095025 73.759399,15.056498 76.603241,15.536184 
	C77.007523,27.805422 76.987907,39.556446 76.968292,51.307468 
z"/>
<path fill="#707479" opacity="1.000000" stroke="none" 
	d="
M91.017387,51.333294 
	C88.963875,51.444977 86.910355,51.556656 84.434479,51.113968 
	C83.999138,38.752827 83.986168,26.946053 83.973190,15.139278 
	C86.040245,15.103344 88.107292,15.067410 90.731590,15.249197 
	C91.463165,15.662892 91.662369,15.829036 91.886452,15.965348 
	C91.935791,26.682653 91.985130,37.399960 91.793274,48.777805 
	C91.373848,50.069996 91.195618,50.701645 91.017387,51.333294 
z"/>
<path fill="#21B0E4" opacity="1.000000" stroke="none" 
	d="
M50.395195,91.271385 
	C51.878700,91.188858 53.368484,91.166283 54.844437,91.011658 
	C58.189419,90.661224 59.119301,92.283989 59.054249,95.413925 
	C58.899353,102.866684 58.676395,110.344521 59.119244,117.774178 
	C59.429268,122.975372 57.348801,124.604004 52.093781,123.593254 
	C51.112572,121.777817 50.279285,120.416412 50.271019,119.050011 
	C50.215015,109.791061 50.333271,100.531052 50.395195,91.271385 
z"/>
<path fill="#13ABE4" opacity="1.000000" stroke="none" 
	d="
M136.325958,121.522659 
	C136.248642,120.635910 136.171341,119.749168 136.485474,118.225166 
	C137.037933,108.838089 137.198975,100.088264 137.360001,91.338440 
	C139.253830,91.240822 141.147644,91.143204 143.498871,91.572929 
	C143.984772,99.673409 144.025711,107.246521 144.038269,114.819687 
	C144.051178,122.599365 144.039047,122.599388 136.325958,121.522659 
z"/>
<path fill="#6BE1FC" opacity="1.000000" stroke="none" 
	d="
M136.233704,121.955978 
	C144.039047,122.599388 144.051178,122.599365 144.038269,114.819687 
	C144.025711,107.246521 143.984772,99.673409 143.904388,91.647148 
	C144.233704,91.750832 144.943710,92.305496 144.947342,92.864769 
	C145.014099,103.089752 144.996109,113.315285 144.996109,124.662682 
	C141.724854,123.822807 138.933136,123.106049 136.233704,121.955978 
z"/>
<path fill="#C4C5C6" opacity="1.000000" stroke="none" 
	d="
M68.525185,15.305662 
	C69.105499,27.324062 69.291512,39.514572 69.793350,52.041817 
	C70.171700,52.682827 70.235107,52.986919 70.380997,53.511978 
	C69.642464,52.446907 68.127312,51.169445 68.110970,49.873100 
	C67.966492,38.409897 68.087982,26.943336 68.525185,15.305662 
z"/>
<path fill="#A8FFFF" opacity="1.000000" stroke="none" 
	d="
M91.227493,74.205353 
	C103.450974,73.811935 115.667740,73.877480 128.338226,73.914368 
	C128.393158,74.252029 127.993088,74.939674 127.595825,74.938042 
	C115.470634,74.888435 103.345726,74.771111 91.227493,74.205353 
z"/>
<path fill="#9CEFFF" opacity="1.000000" stroke="none" 
	d="
M127.849197,65.588623 
	C115.892494,65.911514 103.740120,65.839180 91.547112,65.393356 
	C91.693169,64.967773 91.879860,64.915665 92.066551,64.863556 
	C103.928879,64.973503 115.791199,65.083450 127.849197,65.588623 
z"/>
<path fill="#65767F" opacity="1.000000" stroke="none" 
	d="
M92.040710,64.463585 
	C91.879860,64.915665 91.693169,64.967773 91.230972,65.113907 
	C88.935173,65.517532 86.914871,65.827126 84.513489,66.227089 
	C83.750465,64.840431 83.368538,63.363407 82.962769,61.500443 
	C85.669014,61.199982 88.399101,61.285461 91.496162,61.513313 
	C91.913712,62.458324 91.964294,63.260971 92.040710,64.463585 
z"/>
<path fill="#7AE0FF" opacity="1.000000" stroke="none" 
	d="
M92.382431,61.051479 
	C93.615852,60.726345 95.321907,60.059711 97.035339,60.040180 
	C107.323135,59.922909 117.612617,59.954300 128.357208,59.915695 
	C127.410492,60.263645 126.010780,60.938713 124.605278,60.951023 
	C114.023659,61.043716 103.440887,61.005974 92.382431,61.051479 
z"/>
<path fill="#84898D" opacity="1.000000" stroke="none" 
	d="
M83.584160,15.318572 
	C83.986168,26.946053 83.999138,38.752827 84.011063,50.974388 
	C83.850212,51.485809 83.690407,51.582436 83.261063,51.752380 
	C83.059387,39.716423 83.127258,27.607143 83.584160,15.318572 
z"/>
<path fill="#BFC2C5" opacity="1.000000" stroke="none" 
	d="
M77.192947,51.461750 
	C76.987907,39.556446 77.007523,27.805422 77.053398,15.595095 
	C77.386261,16.451094 77.950272,17.764740 77.958763,19.081968 
	C78.027008,29.671230 77.990509,40.261166 77.966827,51.297035 
	C77.770950,51.700798 77.594276,51.658417 77.192947,51.461750 
z"/>
<path fill="#D0F6FD" opacity="1.000000" stroke="none" 
	d="
M49.927147,91.196838 
	C50.333271,100.531052 50.215015,109.791061 50.271019,119.050011 
	C50.279285,120.416412 51.112572,121.777817 51.661160,123.489822 
	C50.834492,122.977646 49.112000,122.119835 49.109131,121.256310 
	C49.075783,111.212135 49.301781,101.167091 49.927147,91.196838 
z"/>
<path fill="#6C9DAC" opacity="1.000000" stroke="none" 
	d="
M160.729553,93.869202 
	C161.189133,103.065186 161.252487,112.511490 161.369934,122.410889 
	C160.931564,122.657883 160.007462,122.449142 160.008698,122.246078 
	C160.066238,112.870247 160.204468,103.494911 160.729553,93.869202 
z"/>
<path fill="#E5FFFF" opacity="1.000000" stroke="none" 
	d="
M72.742813,96.056763 
	C73.175964,104.539467 73.177017,113.175240 73.261642,122.250664 
	C72.899521,122.261948 72.064499,121.832481 72.065697,121.405357 
	C72.089218,113.006683 72.209869,104.608284 72.742813,96.056763 
z"/>
<path fill="#FFFFFF" opacity="1.000000" stroke="none" 
	d="
M136.902420,91.235153 
	C137.198975,100.088264 137.037933,108.838089 136.567535,117.897942 
	C136.320389,109.182602 136.382614,100.157242 136.902420,91.235153 
z"/>
<path fill="#D0F6FD" opacity="1.000000" stroke="none" 
	d="
M26.914757,115.499802 
	C26.496435,115.933052 26.209394,115.789757 25.915234,115.007690 
	C25.805241,114.285126 25.759789,114.086304 25.714336,113.887489 
	C25.734879,106.533859 25.755419,99.180229 25.897816,91.365311 
	C26.348345,93.857574 26.873365,96.805260 26.962008,99.766006 
	C27.114292,104.852478 26.994312,109.947083 26.914757,115.499802 
z"/>
<path fill="#60E2FF" opacity="1.000000" stroke="none" 
	d="
M112.920555,115.536926 
	C112.553535,108.038086 112.247093,100.072098 111.886887,91.653641 
	C112.222336,92.408318 112.929443,93.610596 112.948013,94.823425 
	C113.051338,101.570793 112.987671,108.320717 112.920555,115.536926 
z"/>
<path fill="#71C7E6" opacity="1.000000" stroke="none" 
	d="
M25.876705,90.534439 
	C23.567808,91.037842 21.076841,91.162590 18.111229,91.216599 
	C20.322601,90.815842 23.008617,90.485809 25.876705,90.534439 
z"/>
<path fill="#84898D" opacity="1.000000" stroke="none" 
	d="
M91.238853,51.480225 
	C91.195618,50.701645 91.373848,50.069996 91.717613,49.244305 
	C91.920532,49.734547 91.957924,50.418831 91.981781,51.443497 
	C91.798935,51.731632 91.629623,51.679394 91.238853,51.480225 
z"/>
<path fill="#84898D" opacity="1.000000" stroke="none" 
	d="
M91.884865,15.722097 
	C91.662369,15.829036 91.463165,15.662892 91.170982,15.311390 
	C91.424500,15.020259 91.701210,15.127920 91.884865,15.722097 
z"/>
<path fill="#71C7E6" opacity="1.000000" stroke="none" 
	d="
M25.612247,114.025528 
	C25.759789,114.086304 25.805241,114.285126 25.808371,114.786789 
	C25.680752,114.780945 25.595455,114.472252 25.612247,114.025528 
z"/>
</svg>