<?xml version="1.0" standalone="no"?>
<!DOCTYPE svg PUBLIC "-//W3C//DTD SVG 20010904//EN"
 "http://www.w3.org/TR/2001/REC-SVG-20010904/DTD/svg10.dtd">
<svg version="1.0" xmlns="http://www.w3.org/2000/svg"
 width="541.000000pt" height="395.000000pt" viewBox="0 0 541.000000 395.000000"
 preserveAspectRatio="xMidYMid meet">

<g transform="translate(0.000000,395.000000) scale(0.100000,-0.100000)"
fill="#000000" stroke="none">
<path d="M1790 3095 l0 -486 108 3 107 3 3 483 2 482 -110 0 -110 0 0 -485z"/>
<path d="M2180 3095 l0 -485 105 0 105 0 0 485 0 485 -105 0 -105 0 0 -485z"/>
<path d="M2208 2382 c-27 -3 -28 -5 -28 -66 l0 -64 103 2 102 1 3 63 c2 45 0
62 -10 63 -88 3 -148 3 -170 1z"/>
</g>
</svg>
