<svg version="1.1" id="Layer_1" xmlns="http://www.w3.org/2000/svg" xmlns:xlink="http://www.w3.org/1999/xlink" x="0px" y="0px"
	 width="50%" viewBox="0 0 541 395" enable-background="new 0 0 541 395" xml:space="preserve">
<path fill="#FDFEFE" opacity="1.000000" stroke="none" 
	d="
M542.000000,5.000000 
	C542.000000,135.291153 542.000000,265.582306 542.000000,395.936737 
	C361.767212,395.936737 181.534409,395.936737 1.000000,395.936737 
	C1.000000,265.976074 1.000000,135.951920 1.468657,5.463889 
	C17.265306,5.000013 32.593296,5.000017 47.921288,5.000019 
	C63.249256,5.000021 78.577225,5.000020 93.905190,5.000020 
	C109.399765,5.000020 124.894341,5.000020 140.388916,5.000020 
	C155.716888,5.000020 171.044846,5.000020 186.372818,5.000020 
	C201.700790,5.000020 217.028748,5.000020 232.356720,5.000020 
	C247.684692,5.000020 263.012665,5.000020 278.340637,5.000020 
	C293.835205,5.000020 309.343842,4.588409 324.820343,5.117239 
	C339.917358,5.633102 354.966003,4.582307 370.062958,4.747482 
	C427.369354,5.374464 484.686737,5.000006 542.000000,5.000000 
M490.604736,219.246140 
	C490.447388,219.548004 490.290039,219.849869 490.167389,220.046463 
	C490.167389,220.046463 490.162628,220.158142 489.278992,220.063721 
	C487.801056,220.093124 486.323090,220.122543 484.835388,220.096069 
	C484.835388,220.096069 484.870941,220.137009 484.777252,219.616089 
	C484.494202,219.426315 484.211121,219.236542 483.482941,218.890854 
	C483.482941,218.890854 483.061096,218.679993 482.883270,218.074097 
	C481.251678,218.223984 479.620056,218.373856 477.275879,218.637573 
	C476.558746,218.591797 475.841614,218.546021 474.872314,217.928192 
	C473.558014,218.160660 472.243683,218.393127 470.455505,219.172104 
	C473.162262,221.683838 473.975067,224.715942 474.201355,228.437820 
	C474.339569,230.711105 476.386597,230.220367 477.670380,227.451111 
	C478.803375,225.686600 476.364838,221.767838 481.055908,222.898727 
	C481.379364,225.240952 481.702820,227.583191 482.281464,230.407974 
	C482.822632,230.228363 483.363770,230.048737 483.937805,230.005310 
	C483.937805,230.005310 483.886078,229.872452 484.793457,229.964767 
	C486.920044,229.930756 489.046600,229.896744 491.815796,229.887146 
	C492.563019,229.583023 493.310211,229.278900 494.794739,228.812180 
	C497.251465,225.324249 495.752014,222.167389 493.334442,218.840012 
	C492.890076,218.792908 492.445709,218.745804 491.727509,218.449554 
	C491.515137,218.671066 491.302795,218.892563 490.997162,219.037857 
	C490.997162,219.037857 491.108765,219.083069 490.604736,219.246140 
M240.925995,169.880173 
	C240.930664,165.898697 240.935333,161.917206 241.873703,157.772797 
	C258.851624,157.758514 275.829559,157.742432 292.807465,157.730515 
	C305.957153,157.721298 319.107697,157.784576 332.255219,157.613419 
	C333.668732,157.595016 336.243652,156.284180 336.282990,155.475708 
	C336.610352,148.746170 336.468719,141.993790 336.468719,134.878250 
	C324.749176,134.878250 313.781769,134.908585 302.814545,134.871735 
	C282.182404,134.802444 261.550415,134.694366 240.923676,133.734192 
	C240.923676,101.661797 240.923676,69.589409 240.923676,37.423149 
	C232.949341,37.423149 225.720459,37.423149 218.028076,37.423149 
	C218.028076,70.034286 218.028076,102.306496 217.110977,134.784836 
	C212.314835,134.731537 207.518692,134.678253 202.795929,133.756104 
	C202.795929,101.687782 202.795929,69.619461 202.795929,37.397598 
	C194.843460,37.397598 187.611099,37.397598 180.169403,37.397598 
	C180.054337,38.638485 179.887466,39.601261 179.887070,40.564106 
	C179.874359,71.028297 179.872284,101.492493 179.900452,131.956665 
	C179.901505,133.093338 180.220795,134.229736 180.688278,135.878235 
	C184.397705,139.456879 188.402206,142.780945 191.755203,146.667099 
	C198.751205,154.775650 206.862244,159.810654 218.043045,158.896423 
	C218.557358,163.365662 219.071655,167.834900 219.997894,172.946854 
	C226.421387,178.981323 232.701309,185.181656 239.359482,190.945023 
	C241.255219,192.586014 244.244705,193.767639 246.742523,193.785614 
	C274.697601,193.986725 302.654602,193.923050 330.611084,193.912704 
	C332.376221,193.912048 334.141296,193.762100 336.032776,193.675842 
	C336.032776,185.865494 336.032776,178.621094 336.032776,170.967499 
	C333.879272,170.967499 332.079712,170.970963 330.280151,170.966965 
	C300.497162,170.900711 270.714172,170.833542 240.925995,169.880173 
M463.361938,276.929688 
	C464.205872,274.806610 465.049835,272.683563 466.200928,269.787842 
	C457.063751,269.787842 448.663666,269.787842 439.851898,269.787842 
	C439.851898,265.223450 440.005554,261.245483 439.806152,257.285248 
	C439.627319,253.732819 441.354156,252.515640 444.572784,252.535446 
	C449.067017,252.563095 453.567841,252.672455 458.052490,252.462097 
	C459.544525,252.392105 461.779114,251.861435 462.328400,250.826843 
	C464.600952,246.546234 466.357849,241.991898 468.386597,237.349518 
	C466.979584,237.047623 466.497711,236.855179 466.015320,236.853912 
	C456.859924,236.830124 447.701874,236.686234 438.549744,236.856827 
	C425.236847,237.104965 419.996674,242.580215 419.966339,256.052887 
	C419.921417,276.028931 419.936951,296.005096 419.952850,315.981232 
	C419.954102,317.558319 420.158752,319.135315 420.264465,320.649139 
	C426.989166,320.649139 433.088562,320.649139 439.580414,320.649139 
	C439.678284,318.597321 439.830505,316.814117 439.836914,315.030365 
	C439.866150,306.873535 440.077393,298.708008 439.764008,290.563263 
	C439.605988,286.456512 441.121826,285.320312 444.918243,285.589447 
	C448.562286,285.847778 452.292938,286.026337 455.878082,285.503357 
	C457.737335,285.232147 459.622772,283.611603 461.012360,282.142700 
	C462.084869,281.009033 462.403473,279.162201 463.361938,276.929688 
M222.517822,269.914734 
	C219.066177,269.914734 215.614548,269.914734 211.512787,269.914734 
	C211.512787,265.305786 211.621689,261.349670 211.479630,257.402527 
	C211.357529,254.010101 212.824387,252.498596 216.182449,252.534088 
	C220.848282,252.583435 225.523102,252.670990 230.177078,252.423126 
	C231.610138,252.346832 233.709869,251.598038 234.263046,250.520142 
	C236.428802,246.300110 238.098099,241.825272 240.217789,236.816788 
	C229.918625,236.816788 220.435791,236.710678 210.956238,236.841766 
	C196.890991,237.036285 191.436417,242.792252 191.504150,256.909302 
	C191.600891,277.073334 191.617630,297.237762 191.696915,317.401917 
	C191.701233,318.500854 191.966263,319.598785 192.107742,320.680481 
	C198.573807,320.680481 204.693878,320.680481 211.233063,320.680481 
	C211.329712,318.665314 211.483948,316.872284 211.490036,315.078705 
	C211.517731,306.912231 211.705231,298.738556 211.419678,290.582031 
	C211.277023,286.507599 212.758240,285.282074 216.617599,285.560516 
	C220.430984,285.835632 224.287140,285.764130 228.108109,285.550873 
	C229.416794,285.477844 231.359222,284.859344 231.840332,283.901520 
	C234.026932,279.548340 235.795578,274.985168 237.966354,269.908752 
	C232.480835,269.908752 227.994446,269.908752 222.517822,269.914734 
M46.862778,263.500000 
	C46.870487,277.150970 46.750317,290.803619 46.927685,304.452393 
	C47.061714,314.766083 52.653828,320.407898 63.058659,320.814941 
	C70.040939,321.088104 77.042274,320.986816 84.031738,320.863678 
	C85.339363,320.840668 87.333351,320.280884 87.809868,319.352478 
	C89.979256,315.125824 91.719727,310.679047 94.031342,305.350403 
	C86.344765,305.350403 79.580368,305.085052 72.848518,305.438873 
	C67.941025,305.696808 66.551025,303.773071 66.596878,299.103210 
	C66.781593,280.292206 66.683121,261.478302 66.659737,242.665466 
	C66.657364,240.757751 66.456314,238.850296 66.344238,236.886078 
	C59.612152,236.886078 53.504250,236.886078 46.862679,236.886078 
	C46.862679,245.594025 46.862679,254.047012 46.862778,263.500000 
M287.168213,236.639786 
	C283.239929,236.639786 279.311646,236.639786 275.708344,236.639786 
	C275.292084,237.803604 275.086792,238.109985 275.086426,238.416611 
	C275.061218,260.556885 274.870911,282.699280 275.125122,304.836548 
	C275.237732,314.643585 280.858276,320.185303 290.735016,320.746674 
	C298.038055,321.161774 305.380096,320.937103 312.703949,320.885864 
	C313.750488,320.878510 315.395752,320.539703 315.738831,319.846802 
	C317.963989,315.352112 319.905273,310.716919 322.276245,305.368134 
	C314.621490,305.368134 308.147949,305.389496 301.674622,305.362244 
	C294.954437,305.333954 294.911438,305.313416 294.903534,298.762054 
	C294.880798,279.949738 294.903687,261.137390 294.884277,242.325058 
	C294.882477,240.586380 294.706696,238.847855 294.606720,237.018219 
	C292.017822,236.880981 290.035217,236.775894 287.168213,236.639786 
M139.523376,236.787125 
	C136.769791,236.787125 134.016205,236.787125 131.411560,236.787125 
	C131.411560,265.319122 131.411560,292.999908 131.411560,320.513916 
	C138.160736,320.513916 144.399170,320.513916 150.675201,320.513916 
	C150.675201,292.526703 150.675201,264.957031 150.675201,236.783783 
	C147.082550,236.783783 143.795212,236.783783 139.523376,236.787125 
M358.955414,247.525299 
	C358.955414,271.911255 358.955414,296.297211 358.955414,320.535889 
	C366.159424,320.535889 372.402496,320.535889 378.731506,320.535889 
	C378.731506,292.565460 378.731506,264.992188 378.731506,237.213898 
	C372.070129,237.213898 365.715637,237.213898 358.955811,237.213898 
	C358.955811,240.595505 358.955811,243.566330 358.955414,247.525299 
z"/>
<path fill="#F7F7F7" opacity="1.000000" stroke="none" 
	d="
M542.000000,4.500000 
	C484.686737,5.000006 427.369354,5.374464 370.062958,4.747482 
	C354.966003,4.582307 339.917358,5.633102 324.820343,5.117239 
	C309.343842,4.588409 293.835205,5.000020 278.340637,5.000020 
	C263.012665,5.000020 247.684692,5.000020 232.356720,5.000020 
	C217.028748,5.000020 201.700790,5.000020 186.372818,5.000020 
	C171.044846,5.000020 155.716888,5.000020 140.388916,5.000020 
	C124.894341,5.000020 109.399765,5.000020 93.905190,5.000020 
	C78.577225,5.000020 63.249256,5.000021 47.921288,5.000019 
	C32.593296,5.000017 17.265306,5.000013 1.468657,5.000005 
	C1.000000,3.666667 1.000000,2.333333 1.000000,1.000000 
	C180.000000,1.000000 359.000000,0.999128 538.000000,1.011000 
	C540.016968,1.011134 542.928955,-0.016389 542.000000,4.500000 
z"/>
<path fill="#08AFED" opacity="1.000000" stroke="none" 
	d="
M218.039841,157.966995 
	C206.862244,159.810654 198.751205,154.775650 191.755203,146.667099 
	C188.402206,142.780945 184.397705,139.456879 180.967743,135.525818 
	C188.405670,134.990585 195.564102,134.807770 202.722549,134.624954 
	C207.518692,134.678253 212.314835,134.731537 218.014435,134.812531 
	C226.251389,134.760941 233.584869,134.681686 240.918365,134.602417 
	C261.550415,134.694366 282.182404,134.802444 302.814545,134.871735 
	C313.781769,134.908585 324.749176,134.878250 336.468719,134.878250 
	C336.468719,141.993790 336.610352,148.746170 336.282990,155.475708 
	C336.243652,156.284180 333.668732,157.595016 332.255219,157.613419 
	C319.107697,157.784576 305.957153,157.721298 292.807465,157.730515 
	C275.829559,157.742432 258.851624,157.758514 241.092194,157.597351 
	C232.887085,157.603592 225.463455,157.785294 218.039841,157.966995 
z"/>
<path fill="#08AEEC" opacity="1.000000" stroke="none" 
	d="
M240.931198,170.766571 
	C270.714172,170.833542 300.497162,170.900711 330.280151,170.966965 
	C332.079712,170.970963 333.879272,170.967499 336.032776,170.967499 
	C336.032776,178.621094 336.032776,185.865494 336.032776,193.675842 
	C334.141296,193.762100 332.376221,193.912048 330.611084,193.912704 
	C302.654602,193.923050 274.697601,193.986725 246.742523,193.785614 
	C244.244705,193.767639 241.255219,192.586014 239.359482,190.945023 
	C232.701309,185.181656 226.421387,178.981323 220.137787,172.432053 
	C222.028580,171.615189 223.772156,171.113266 225.531769,171.048813 
	C230.661469,170.861023 235.797592,170.848083 240.931198,170.766571 
z"/>
<path fill="#0AAEEB" opacity="1.000000" stroke="none" 
	d="
M463.209595,277.281067 
	C462.403473,279.162201 462.084869,281.009033 461.012360,282.142700 
	C459.622772,283.611603 457.737335,285.232147 455.878082,285.503357 
	C452.292938,286.026337 448.562286,285.847778 444.918243,285.589447 
	C441.121826,285.320312 439.605988,286.456512 439.764008,290.563263 
	C440.077393,298.708008 439.866150,306.873535 439.836914,315.030365 
	C439.830505,316.814117 439.678284,318.597321 439.580414,320.649139 
	C433.088562,320.649139 426.989166,320.649139 420.264465,320.649139 
	C420.158752,319.135315 419.954102,317.558319 419.952850,315.981232 
	C419.936951,296.005096 419.921417,276.028931 419.966339,256.052887 
	C419.996674,242.580215 425.236847,237.104965 438.549744,236.856827 
	C447.701874,236.686234 456.859924,236.830124 466.015320,236.853912 
	C466.497711,236.855179 466.979584,237.047623 468.386597,237.349518 
	C466.357849,241.991898 464.600952,246.546234 462.328400,250.826843 
	C461.779114,251.861435 459.544525,252.392105 458.052490,252.462097 
	C453.567841,252.672455 449.067017,252.563095 444.572784,252.535446 
	C441.354156,252.515640 439.627319,253.732819 439.806152,257.285248 
	C440.005554,261.245483 439.851898,265.223450 439.851898,269.787842 
	C448.663666,269.787842 457.063751,269.787842 466.200928,269.787842 
	C465.049835,272.683563 464.205872,274.806610 463.209595,277.281067 
z"/>
<path fill="#08AEEC" opacity="1.000000" stroke="none" 
	d="
M223.012939,269.911743 
	C227.994446,269.908752 232.480835,269.908752 237.966354,269.908752 
	C235.795578,274.985168 234.026932,279.548340 231.840332,283.901520 
	C231.359222,284.859344 229.416794,285.477844 228.108109,285.550873 
	C224.287140,285.764130 220.430984,285.835632 216.617599,285.560516 
	C212.758240,285.282074 211.277023,286.507599 211.419678,290.582031 
	C211.705231,298.738556 211.517731,306.912231 211.490036,315.078705 
	C211.483948,316.872284 211.329712,318.665314 211.233063,320.680481 
	C204.693878,320.680481 198.573807,320.680481 192.107742,320.680481 
	C191.966263,319.598785 191.701233,318.500854 191.696915,317.401917 
	C191.617630,297.237762 191.600891,277.073334 191.504150,256.909302 
	C191.436417,242.792252 196.890991,237.036285 210.956238,236.841766 
	C220.435791,236.710678 229.918625,236.816788 240.217789,236.816788 
	C238.098099,241.825272 236.428802,246.300110 234.263046,250.520142 
	C233.709869,251.598038 231.610138,252.346832 230.177078,252.423126 
	C225.523102,252.670990 220.848282,252.583435 216.182449,252.534088 
	C212.824387,252.498596 211.357529,254.010101 211.479630,257.402527 
	C211.621689,261.349670 211.512787,265.305786 211.512787,269.914734 
	C215.614548,269.914734 219.066177,269.914734 223.012939,269.911743 
z"/>
<path fill="#74767A" opacity="1.000000" stroke="none" 
	d="
M202.759247,134.190521 
	C195.564102,134.807770 188.405670,134.990585 180.819504,135.269836 
	C180.220795,134.229736 179.901505,133.093338 179.900452,131.956665 
	C179.872284,101.492493 179.874359,71.028297 179.887070,40.564106 
	C179.887466,39.601261 180.054337,38.638485 180.169403,37.397598 
	C187.611099,37.397598 194.843460,37.397598 202.795929,37.397598 
	C202.795929,69.619461 202.795929,101.687782 202.759247,134.190521 
z"/>
<path fill="#74767A" opacity="1.000000" stroke="none" 
	d="
M240.921021,134.168304 
	C233.584869,134.681686 226.251389,134.760941 218.472992,134.709457 
	C218.028076,102.306496 218.028076,70.034286 218.028076,37.423149 
	C225.720459,37.423149 232.949341,37.423149 240.923676,37.423149 
	C240.923676,69.589409 240.923676,101.661797 240.921021,134.168304 
z"/>
<path fill="#0CB0ED" opacity="1.000000" stroke="none" 
	d="
M46.862728,263.000000 
	C46.862679,254.047012 46.862679,245.594025 46.862679,236.886078 
	C53.504250,236.886078 59.612152,236.886078 66.344238,236.886078 
	C66.456314,238.850296 66.657364,240.757751 66.659737,242.665466 
	C66.683121,261.478302 66.781593,280.292206 66.596878,299.103210 
	C66.551025,303.773071 67.941025,305.696808 72.848518,305.438873 
	C79.580368,305.085052 86.344765,305.350403 94.031342,305.350403 
	C91.719727,310.679047 89.979256,315.125824 87.809868,319.352478 
	C87.333351,320.280884 85.339363,320.840668 84.031738,320.863678 
	C77.042274,320.986816 70.040939,321.088104 63.058659,320.814941 
	C52.653828,320.407898 47.061714,314.766083 46.927685,304.452393 
	C46.750317,290.803619 46.870487,277.150970 46.862728,263.000000 
z"/>
<path fill="#0AAFEC" opacity="1.000000" stroke="none" 
	d="
M287.610413,236.655304 
	C290.035217,236.775894 292.017822,236.880981 294.606720,237.018219 
	C294.706696,238.847855 294.882477,240.586380 294.884277,242.325058 
	C294.903687,261.137390 294.880798,279.949738 294.903534,298.762054 
	C294.911438,305.313416 294.954437,305.333954 301.674622,305.362244 
	C308.147949,305.389496 314.621490,305.368134 322.276245,305.368134 
	C319.905273,310.716919 317.963989,315.352112 315.738831,319.846802 
	C315.395752,320.539703 313.750488,320.878510 312.703949,320.885864 
	C305.380096,320.937103 298.038055,321.161774 290.735016,320.746674 
	C280.858276,320.185303 275.237732,314.643585 275.125122,304.836548 
	C274.870911,282.699280 275.061218,260.556885 275.086426,238.416611 
	C275.086792,238.109985 275.292084,237.803604 275.708344,236.639786 
	C279.311646,236.639786 283.239929,236.639786 287.610413,236.655304 
z"/>
<path fill="#08AFEC" opacity="1.000000" stroke="none" 
	d="
M140.015625,236.785461 
	C143.795212,236.783783 147.082550,236.783783 150.675201,236.783783 
	C150.675201,264.957031 150.675201,292.526703 150.675201,320.513916 
	C144.399170,320.513916 138.160736,320.513916 131.411560,320.513916 
	C131.411560,292.999908 131.411560,265.319122 131.411560,236.787125 
	C134.016205,236.787125 136.769791,236.787125 140.015625,236.785461 
z"/>
<path fill="#08AFED" opacity="1.000000" stroke="none" 
	d="
M358.955627,247.031235 
	C358.955811,243.566330 358.955811,240.595505 358.955811,237.213898 
	C365.715637,237.213898 372.070129,237.213898 378.731506,237.213898 
	C378.731506,264.992188 378.731506,292.565460 378.731506,320.535889 
	C372.402496,320.535889 366.159424,320.535889 358.955414,320.535889 
	C358.955414,296.297211 358.955414,271.911255 358.955627,247.031235 
z"/>
<path fill="#6B7A82" opacity="1.000000" stroke="none" 
	d="
M240.928589,170.323364 
	C235.797592,170.848083 230.661469,170.861023 225.531769,171.048813 
	C223.772156,171.113266 222.028580,171.615189 219.931824,172.110687 
	C219.071655,167.834900 218.557358,163.365662 218.041443,158.431702 
	C225.463455,157.785294 232.887085,157.603592 240.625351,157.678802 
	C240.935333,161.917206 240.930664,165.898697 240.928589,170.323364 
z"/>
<path fill="#33B0DE" opacity="1.000000" stroke="none" 
	d="
M494.057434,228.974792 
	C493.310211,229.278900 492.563019,229.583023 491.436768,229.531097 
	C490.899048,228.076462 490.740356,226.977844 490.679565,226.556992 
	C488.559296,226.764664 486.659851,226.950729 484.386841,227.173370 
	C484.303986,227.619980 484.095032,228.746216 483.886047,229.872452 
	C483.886078,229.872452 483.937805,230.005310 483.608368,229.901520 
	C482.861359,229.840286 482.443817,229.882858 482.026245,229.925430 
	C481.702820,227.583191 481.379364,225.240952 481.054077,222.112854 
	C481.721863,220.444641 482.391479,219.562317 483.061096,218.679993 
	C483.061096,218.679993 483.482941,218.890854 483.783752,219.212585 
	C484.346710,219.735214 484.608826,219.936111 484.870941,220.137009 
	C484.870941,220.137009 484.835388,220.096069 484.895721,220.440063 
	C485.735138,221.762100 486.514221,222.740128 487.689850,224.215988 
	C488.700073,222.558182 489.431335,221.358154 490.162628,220.158142 
	C490.162628,220.158142 490.167389,220.046463 490.393799,220.010010 
	C490.783081,219.676743 490.945923,219.379898 491.108765,219.083069 
	C491.108765,219.083069 490.997162,219.037857 491.291809,219.016876 
	C491.724762,218.896820 491.863068,218.797760 492.001343,218.698700 
	C492.445709,218.745804 492.890076,218.792908 493.640472,219.387299 
	C493.983490,222.947998 494.020447,225.961395 494.057434,228.974792 
z"/>
<path fill="#34ABD6" opacity="1.000000" stroke="none" 
	d="
M475.124481,218.500244 
	C475.841614,218.546021 476.558746,218.591797 477.988647,218.736359 
	C479.067169,219.283508 479.432922,219.731873 479.798676,220.180237 
	C475.937042,221.796906 476.875061,225.014969 477.182098,228.022522 
	C476.386597,230.220367 474.339569,230.711105 474.201355,228.437820 
	C473.975067,224.715942 473.162262,221.683838 471.108398,218.987335 
	C472.882385,218.701797 474.003418,218.601028 475.124481,218.500244 
z"/>
<path fill="#C5F5FD" opacity="1.000000" stroke="none" 
	d="
M484.339752,229.918610 
	C484.095032,228.746216 484.303986,227.619980 484.386841,227.173370 
	C486.659851,226.950729 488.559296,226.764664 490.679565,226.556992 
	C490.740356,226.977844 490.899048,228.076462 491.115448,229.518890 
	C489.046600,229.896744 486.920044,229.930756 484.339752,229.918610 
z"/>
<path fill="#C5F5FD" opacity="1.000000" stroke="none" 
	d="
M477.426239,227.736816 
	C476.875061,225.014969 475.937042,221.796906 479.798676,220.180237 
	C479.432922,219.731873 479.067169,219.283508 478.344940,218.679443 
	C479.620056,218.373856 481.251678,218.223984 482.972168,218.377045 
	C482.391479,219.562317 481.721863,220.444641 480.985229,221.696686 
	C476.364838,221.767838 478.803375,225.686600 477.426239,227.736816 
z"/>
<path fill="#C5F5FD" opacity="1.000000" stroke="none" 
	d="
M494.426086,228.893494 
	C494.020447,225.961395 493.983490,222.947998 493.961487,219.484116 
	C495.752014,222.167389 497.251465,225.324249 494.426086,228.893494 
z"/>
<path fill="#C5F5FD" opacity="1.000000" stroke="none" 
	d="
M489.720825,220.110931 
	C489.431335,221.358154 488.700073,222.558182 487.689850,224.215988 
	C486.514221,222.740128 485.735138,221.762100 484.900604,220.468018 
	C486.323090,220.122543 487.801056,220.093124 489.720825,220.110931 
z"/>
<path fill="#C5F5FD" opacity="1.000000" stroke="none" 
	d="
M474.998413,218.214233 
	C474.003418,218.601028 472.882385,218.701797 471.345337,218.714081 
	C472.243683,218.393127 473.558014,218.160660 474.998413,218.214233 
z"/>
<path fill="#C5F5FD" opacity="1.000000" stroke="none" 
	d="
M482.153870,230.166702 
	C482.443817,229.882858 482.861359,229.840286 483.591919,229.833420 
	C483.363770,230.048737 482.822632,230.228363 482.153870,230.166702 
z"/>
<path fill="#C5F5FD" opacity="1.000000" stroke="none" 
	d="
M491.864441,218.574127 
	C491.863068,218.797760 491.724762,218.896820 491.338440,219.054993 
	C491.302795,218.892563 491.515137,218.671066 491.864441,218.574127 
z"/>
<path fill="#C5F5FD" opacity="1.000000" stroke="none" 
	d="
M484.824097,219.876556 
	C484.608826,219.936111 484.346710,219.735214 484.006317,219.290543 
	C484.211121,219.236542 484.494202,219.426315 484.824097,219.876556 
z"/>
<path fill="#C5F5FD" opacity="1.000000" stroke="none" 
	d="
M490.856750,219.164597 
	C490.945923,219.379898 490.783081,219.676743 490.376465,220.062653 
	C490.290039,219.849869 490.447388,219.548004 490.856750,219.164597 
z"/>
</svg>